<svg width="1117" height="693" viewBox="0 0 1117 693" fill="none" xmlns="http://www.w3.org/2000/svg">
<g clip-path="url(#clip0_223_21)">
<path d="M338.179 271.422C338.179 311.334 334.352 340.093 326.696 357.699C319.174 374.778 306.345 383.317 288.211 383.317C270.076 383.317 257.182 374.738 249.526 357.58C242.004 340.871 238.229 311.584 238.202 269.72C238.176 227.855 241.951 198.568 249.526 181.859C257.076 164.596 269.918 155.964 288.053 155.964C295.8 155.693 303.457 157.701 310.073 161.742C316.689 165.782 321.974 171.675 325.271 178.691C333.876 194.687 338.179 225.598 338.179 271.422ZM307.81 271.422C307.81 237.899 306.371 214.709 303.494 201.854C300.617 188.999 295.417 182.624 287.894 182.73C280.37 182.73 275.105 189.025 272.056 201.696C269.007 214.366 267.74 237.133 267.74 269.997C267.74 302.86 269.166 325.707 272.056 338.456C274.946 351.206 280.252 357.422 287.894 357.422C295.536 357.422 300.525 351.166 303.375 338.575C306.358 326.618 307.836 304.233 307.81 271.422Z" fill="white"/>
<path d="M527.126 271.422C527.126 311.334 523.311 340.093 515.683 357.699C508.16 374.778 495.318 383.317 477.158 383.317C458.996 383.317 446.115 374.738 438.513 357.58C431.016 340.871 427.268 311.584 427.268 269.72C427.268 227.855 431.043 198.568 438.592 181.859C446.115 164.596 458.957 155.964 477.118 155.964C484.865 155.693 492.522 157.701 499.138 161.742C505.755 165.782 511.039 171.675 514.336 178.691C522.89 194.687 527.152 225.598 527.126 271.422ZM496.796 271.422C496.796 237.899 495.358 214.709 492.48 201.854C489.63 189.105 484.562 182.73 476.881 182.73C469.198 182.73 464.091 189.025 461.043 201.696C457.994 214.366 456.766 237.133 456.766 269.997C456.766 302.86 458.191 325.707 461.043 338.456C463.893 351.206 469.278 357.422 476.881 357.422C484.482 357.422 489.472 351.166 492.362 338.575C495.292 326.618 496.77 304.233 496.796 271.422Z" fill="white"/>
<path d="M621.282 158.696H671.687V380.704H643.218V184.155H621.282V158.696Z" fill="white"/>
<path d="M766.596 158.696H796.371V266.275L837.905 158.696H867.996L824.443 266.275L871.399 380.704H837.905L796.371 266.275V380.704H766.596V158.696Z" fill="white"/>
<path d="M1109.65 27.7164V0H0V0.514631V538.449V539.282H1081.89H1109.61V511.565V27.7164H1109.65ZM1081.93 511.446H27.7164V27.7164H1081.89L1081.93 511.446Z" fill="white"/>
<path d="M136.167 653.868C136.167 667.7 134.847 677.678 132.207 683.802C131.085 686.438 129.212 688.686 126.822 690.266C124.432 691.846 121.63 692.688 118.765 692.688C115.9 692.688 113.098 691.846 110.708 690.266C108.318 688.686 106.445 686.438 105.322 683.802C102.683 678.022 101.363 667.859 101.363 653.314C101.363 638.77 102.683 628.607 105.322 622.826C106.321 620.103 108.159 617.768 110.572 616.159C112.985 614.55 115.848 613.751 118.745 613.878C121.449 613.778 124.122 614.475 126.431 615.883C128.74 617.291 130.584 619.348 131.732 621.797C134.689 627.287 136.167 637.978 136.167 653.868ZM125.595 653.868C125.846 645.788 125.342 637.702 124.09 629.715C123.101 625.321 121.28 623.103 118.666 623.103C116.053 623.103 114.191 625.281 113.163 629.676C111.15 645.45 111.15 661.416 113.163 677.19C114.191 681.585 116.013 683.763 118.666 683.763C121.319 683.763 123.061 681.585 124.051 677.229C125.361 669.515 125.878 661.687 125.595 653.868Z" fill="white"/>
<path d="M211.159 653.868C211.159 667.7 209.839 677.679 207.2 683.802C206.077 686.438 204.204 688.686 201.814 690.266C199.425 691.846 196.623 692.689 193.757 692.689C190.892 692.689 188.09 691.846 185.7 690.266C183.31 688.686 181.437 686.438 180.315 683.802C177.702 678.022 176.355 667.964 176.355 653.314C176.355 638.664 177.702 628.607 180.315 622.826C181.387 620.273 183.165 618.077 185.44 616.497C187.714 614.917 190.392 614.019 193.16 613.907C195.927 613.795 198.669 614.473 201.065 615.864C203.46 617.254 205.41 619.298 206.685 621.758C209.668 627.274 211.159 637.978 211.159 653.868ZM200.587 653.868C200.839 645.789 200.335 637.702 199.083 629.716C198.093 625.321 196.272 623.103 193.659 623.103C191.045 623.103 189.185 625.281 188.155 629.676C186.142 645.45 186.142 661.416 188.155 677.19C189.185 681.585 191.005 683.762 193.659 683.762C196.312 683.762 198.014 681.585 199.044 677.229C200.353 669.516 200.87 661.688 200.587 653.868Z" fill="white"/>
<path d="M252.417 614.749H269.957V691.761H260.058V623.579H252.417V614.749Z" fill="white"/>
<path d="M324.321 614.749H334.695V652.087L349.147 614.749H359.639L344.475 652.087L360.827 691.682H349.147L334.695 652.087V691.682H324.321V614.749Z" fill="white"/>
<path d="M453.716 614.749H481.433V623.539H464.091V647.929H479.374V656.72H464.091V683.011H481.314V691.761H453.598L453.716 614.749Z" fill="white"/>
<path d="M518.335 614.749H528.393L533.738 629.676C535.35 633.863 536.595 638.182 537.459 642.584C537.856 640.922 538.252 639.258 538.687 637.675L540.113 632.884L540.825 630.627L545.735 614.789H556.228L542.092 652.76L556.346 691.84H545.854L540.785 677.19C539.757 674.26 538.925 671.647 538.292 669.271C537.73 667.239 537.28 665.176 536.945 663.095C536.688 665.255 536.237 667.389 535.599 669.469L533.856 674.973L532.946 677.863L528.511 691.801H517.544L532.114 652.72L518.335 614.749Z" fill="white"/>
<path d="M623.658 616.016V625.361C621.597 624.223 619.314 623.548 616.966 623.38C614.718 623.328 612.508 623.964 610.631 625.202C608.69 626.641 607.183 628.585 606.275 630.825C604.971 633.895 604.105 637.134 603.702 640.446C603.137 645.003 602.873 649.593 602.909 654.185C602.909 673.191 607.78 682.694 617.52 682.694C619.651 682.585 621.739 682.046 623.658 681.11V690.652C621.083 692.049 618.192 692.758 615.263 692.712C599.663 692.712 591.863 679.975 591.863 654.502C591.863 640.776 593.763 630.534 597.564 623.776C599.232 620.617 601.761 617.995 604.859 616.214C607.957 614.434 611.496 613.569 615.066 613.72C618.077 613.747 621.033 614.536 623.658 616.016Z" fill="white"/>
<path d="M665.074 614.749H675.449V644.842H690.653V614.749H701.027V691.761H690.653V653.671H675.449V691.761H665.074V614.749Z" fill="white"/>
<path d="M756.538 614.749H764.457L780.969 691.761H770.713L767.823 676.755H752.54L749.609 691.761H739.632L756.538 614.749ZM766.477 668.598L764.18 656.363C762.649 647.996 761.408 639.074 760.458 629.598C759.983 634.23 759.389 638.902 758.637 643.654C757.885 648.405 757.054 653.434 756.063 658.739L754.162 668.598H766.477Z" fill="white"/>
<path d="M819.929 614.749H829.591L839.925 645.475C842.908 654.185 845.548 663.424 847.844 673.191C847.013 667.252 846.419 661.867 845.983 657.037C845.548 652.206 845.389 647.692 845.389 643.416V614.749H855.842V691.761H846.102L834.461 657.116C833.431 653.908 832.402 650.582 831.452 647.178C830.501 643.772 829.63 640.248 828.839 636.526C828.839 636.051 828.839 635.497 828.522 634.824L828.007 632.528C828.007 633.399 828.006 634.111 828.245 634.744C828.482 635.378 828.245 635.893 828.245 636.328L828.799 644.248L829.314 653.79C829.314 654.344 829.314 654.978 829.314 655.73C829.314 656.482 829.314 657.353 829.314 658.343L829.868 691.88H819.652L819.929 614.749Z" fill="white"/>
<path d="M918.841 651.295H937.682V654.265C937.682 669.284 936.366 679.407 933.725 684.634C932.383 687.271 930.27 689.44 927.664 690.853C925.066 692.267 922.096 692.859 919.152 692.553C915.923 692.802 912.693 692.084 909.87 690.491C907.047 688.897 904.77 686.5 903.315 683.604C900.224 677.626 898.683 667.529 898.683 653.433C898.683 637.239 900.388 626.509 903.748 621.164C905.307 618.7 907.489 616.699 910.078 615.368C912.675 614.038 915.576 613.428 918.477 613.601C922.746 613.339 926.971 614.634 930.357 617.244C933.699 620.555 936.011 624.763 937.007 629.359L927.352 633.319C926.997 631.585 926.521 629.878 925.924 628.211C925.499 627.056 924.902 625.975 924.14 625.004C923.438 624.205 922.564 623.578 921.585 623.173C920.607 622.767 919.542 622.594 918.477 622.668C914.996 622.668 912.658 624.806 911.394 629.042C909.809 636.938 909.169 644.992 909.489 653.037C909.117 661.007 909.766 668.991 911.429 676.794C911.74 678.522 912.632 680.088 913.974 681.224C915.308 682.359 917.005 682.991 918.754 683.011C920.226 683.105 921.689 682.73 922.936 681.941C924.183 681.151 925.144 679.987 925.69 678.616C927.335 673.765 928.028 668.644 927.742 663.53V659.887H918.719L918.841 651.295Z" fill="white"/>
<path d="M980.726 614.749H1008.44V623.539H991.099V647.929H1006.34V656.72H991.099V683.011H1008.28V691.761H980.562L980.726 614.749Z" fill="white"/>
</g>
<defs>
<clipPath id="clip0_223_21">
<rect width="1117" height="692.713" fill="white"/>
</clipPath>
</defs>
</svg>
